# xmcd
# 
# Track frame offsets:
#     150
#     19280
#     32671
#     46098
#     60169
#     80251
#     100179
#     116066
#     131969
#     145220
#     159281
#     172967
# 
# Disc length: 2552
# 
# Revision: 1
# Processed by: cddbd v1.5.2PL0 Copyright (c) Steve Scherf et al.
# Submitted via: fre:ac v1.0.17
# 
DISCID=9209f60c
DTITLE=Royal Wade Kimes - Cowboy Cool
DYEAR=2004
DGENRE=Country
TTITLE0=Ponies
TTITLE1=Modern Day Drover
TTITLE2=Cowboys Only Cry In The Rain
TTITLE3=Wild Love
TTITLE4=Feelin Stud
TTITLE5=The White Horse
TTITLE6=Ruth Ann
TTITLE7=Lost Soul Looking For A Grave
TTITLE8=The Shooting Star
TTITLE9=Lonesome Cowboy
TTITLE10=I'm A Cowboy
TTITLE11=Knockin' On Heaven's Door
EXTD=
EXTT0=
EXTT1=
EXTT2=
EXTT3=
EXTT4=
EXTT5=
EXTT6=
EXTT7=
EXTT8=
EXTT9=
EXTT10=
EXTT11=
PLAYORDER=
